<svg width="915" height="442" viewBox="0 0 915 442" fill="none" xmlns="http://www.w3.org/2000/svg">
<path d="M55.8202 202C55.3002 202 54.7802 201.74 55.0402 201.22L83.6402 20.78C83.6402 20.52 83.9002 20.26 84.4202 20.26L100.8 20C101.32 20 101.58 20.52 101.58 20.78L130.18 201.22C130.44 201.74 129.92 202 129.4 202H115.36C114.84 202 114.58 201.74 114.58 201.22L107.56 154.42C107.56 153.9 107.3 153.64 106.78 153.64H78.7002C78.1802 153.64 77.9202 153.9 77.6602 154.42L70.6402 201.22C70.6402 201.74 70.3802 202 69.8602 202H55.8202ZM102.88 129.72C103.4 129.72 103.66 129.46 103.66 128.94L93.2602 55.62C93.0002 55.1 92.4802 55.1 92.2202 55.62L81.8202 128.94C81.8202 129.46 82.0802 129.72 82.6002 129.72H102.88ZM161.161 205.12C141.401 205.12 127.101 183.8 126.841 141.42C126.841 140.9 127.101 140.64 127.621 140.64H141.401C141.921 140.64 142.181 140.64 142.181 141.16C142.701 169.5 150.501 180.42 160.641 180.42C170.781 180.42 176.761 168.98 176.761 153.38C176.761 107.62 126.841 114.12 126.841 59.78C126.841 28.84 142.441 17.14 158.041 17.14C178.061 17.14 190.021 37.94 190.281 75.64C190.281 76.16 190.021 76.42 189.501 76.42H175.721C175.201 76.42 174.941 76.16 174.941 75.64C174.681 54.84 167.921 42.1 158.041 42.1C148.421 42.1 141.921 51.2 141.921 64.2C141.921 99.04 191.581 91.24 191.581 156.24C191.581 190.04 178.061 205.12 161.161 205.12ZM266.29 134.14C266.81 134.14 267.07 134.4 267.07 134.92C266.55 177.82 254.07 205.12 231.97 205.12C210.91 205.12 194.79 171.84 194.79 111C194.79 52.5 211.43 17.4 232.49 17.4C253.03 17.4 266.55 45.48 267.07 87.34C267.07 87.86 266.81 88.12 266.29 88.12H253.29C252.77 88.12 252.51 87.86 252.51 87.34C251.99 62.38 243.67 42.1 232.49 42.1C219.23 42.1 209.61 69.92 209.61 111C209.61 153.38 219.49 180.16 232.75 180.16C243.41 180.16 251.99 161.44 252.25 134.92C252.25 134.4 252.51 134.14 253.03 134.14H266.29ZM271.935 20.78C271.935 20.26 272.195 20 272.715 20H323.675C324.195 20 324.455 20.26 324.455 20.78V43.14C324.455 43.66 324.195 43.92 323.675 43.92H287.015C286.495 43.92 286.235 44.18 286.235 44.7V95.92C286.235 96.44 286.495 96.7 287.015 96.7H321.335C321.855 96.7 322.115 96.96 322.115 97.48V119.58C322.115 120.1 321.855 120.36 321.335 120.36H287.015C286.495 120.36 286.235 120.62 286.235 121.14V177.56C286.235 178.08 286.495 178.34 287.015 178.34H325.235C325.755 178.34 326.015 178.6 326.015 179.12V201.22C326.015 201.74 325.755 202 325.235 202H272.715C272.195 202 271.935 201.74 271.935 201.22V20.78ZM332.243 20.78C332.243 20.26 332.503 20 333.023 20H353.563C354.083 20 354.343 20.26 354.343 20.78L383.983 152.6C383.983 153.38 384.763 153.38 384.763 152.6V20.78C384.763 20.26 385.023 20 385.543 20H398.283C398.803 20 399.063 20.26 399.063 20.78V201.22C399.063 201.74 398.803 202 398.283 202H379.823C379.563 202 379.303 202 379.043 201.48L347.323 58.48C347.323 57.96 346.543 57.96 346.543 58.74V201.22C346.543 201.74 346.283 202 345.763 202H333.023C332.503 202 332.243 201.74 332.243 201.22V20.78ZM408.801 20.78C408.801 20.26 409.061 20 409.581 20H432.721C461.841 20 475.361 51.98 475.361 111.26C475.361 166.12 462.881 202 433.241 202H409.581C409.061 202 408.801 201.74 408.801 201.22V20.78ZM432.201 178.34C449.101 178.34 460.541 154.16 460.541 111.26C460.541 71.74 450.661 43.92 432.201 43.92H423.881C423.361 43.92 423.101 44.18 423.101 44.7V177.56C423.101 178.08 423.361 178.34 423.881 178.34H432.201ZM480.534 20.78C480.534 20.26 480.794 20 481.314 20H494.054C494.574 20 494.834 20.26 494.834 20.78V201.22C494.834 201.74 494.574 202 494.054 202H481.314C480.794 202 480.534 201.74 480.534 201.22V20.78ZM504.534 20.78C504.534 20.26 504.794 20 505.314 20H525.854C526.374 20 526.634 20.26 526.634 20.78L556.274 152.6C556.274 153.38 557.054 153.38 557.054 152.6V20.78C557.054 20.26 557.314 20 557.834 20H570.574C571.094 20 571.354 20.26 571.354 20.78V201.22C571.354 201.74 571.094 202 570.574 202H552.114C551.854 202 551.594 202 551.334 201.48L519.614 58.48C519.614 57.96 518.834 57.96 518.834 58.74V201.22C518.834 201.74 518.574 202 518.054 202H505.314C504.794 202 504.534 201.74 504.534 201.22V20.78ZM648.691 109.7C649.211 109.7 649.471 109.96 649.471 110.48V201.22C649.471 201.74 649.211 202 648.691 202H635.951C635.431 202 635.171 201.74 635.171 201.22V185.36C631.271 196.54 624.511 204.86 614.371 204.86C593.051 204.86 577.711 171.84 577.711 111.78C577.711 52.76 592.791 17.14 616.451 17.14C635.171 17.14 648.431 41.32 649.471 83.7C649.471 84.22 649.211 84.48 648.691 84.48H635.691C635.171 84.48 634.911 84.22 634.911 83.7C634.391 59.78 625.811 41.84 616.191 41.84C601.371 41.84 592.791 68.36 592.791 111C592.791 153.64 601.371 179.9 615.671 179.9C626.331 179.9 636.731 164.3 637.251 133.36H616.191C615.671 133.36 615.411 133.1 615.411 132.58V110.48C615.411 109.96 615.671 109.7 616.191 109.7H648.691ZM680.125 20.78C680.125 20.26 680.385 20 680.905 20H693.645C694.165 20 694.425 20.26 694.425 20.78V201.22C694.425 201.74 694.165 202 693.645 202H680.905C680.385 202 680.125 201.74 680.125 201.22V20.78ZM704.124 20.78C704.124 20.26 704.384 20 704.904 20H725.444C725.964 20 726.224 20.26 726.224 20.78L755.864 152.6C755.864 153.38 756.644 153.38 756.644 152.6V20.78C756.644 20.26 756.904 20 757.424 20H770.164C770.684 20 770.944 20.26 770.944 20.78V201.22C770.944 201.74 770.684 202 770.164 202H751.704C751.444 202 751.184 202 750.924 201.48L719.204 58.48C719.204 57.96 718.424 57.96 718.424 58.74V201.22C718.424 201.74 718.164 202 717.644 202H704.904C704.384 202 704.124 201.74 704.124 201.22V20.78ZM799.922 44.7C799.922 44.18 799.662 43.92 799.142 43.92H775.482C774.962 43.92 774.702 43.66 774.702 43.14V20.78C774.702 20.26 774.962 20 775.482 20H838.402C838.922 20 839.182 20.26 839.182 20.78V43.14C839.182 43.66 838.922 43.92 838.402 43.92H815.002C814.482 43.92 814.222 44.18 814.222 44.7V201.22C814.222 201.74 813.962 202 813.442 202H800.702C800.182 202 799.922 201.74 799.922 201.22V44.7ZM873.266 205.12C850.906 205.12 836.086 169.76 836.086 111.26C836.086 55.1 850.906 17.4 873.266 17.4C895.626 17.4 910.706 55.88 910.706 111.26C910.706 169.5 895.626 205.12 873.266 205.12ZM873.266 180.16C887.306 180.16 895.886 154.94 895.886 111.26C895.886 69.4 887.306 42.1 873.266 42.1C859.486 42.1 851.166 68.88 851.166 111.26C851.166 154.42 859.486 180.16 873.266 180.16ZM190.303 265.7C190.303 265.18 190.043 264.92 189.523 264.92H165.863C165.343 264.92 165.083 264.66 165.083 264.14V241.78C165.083 241.26 165.343 241 165.863 241H228.783C229.303 241 229.563 241.26 229.563 241.78V264.14C229.563 264.66 229.303 264.92 228.783 264.92H205.383C204.863 264.92 204.603 265.18 204.603 265.7V422.22C204.603 422.74 204.343 423 203.823 423H191.083C190.563 423 190.303 422.74 190.303 422.22V265.7ZM247.448 421.96C247.448 422.48 247.188 422.74 246.668 422.74H233.928C233.408 422.74 233.148 422.48 233.148 421.96V241.52C233.148 241 233.408 240.74 233.928 240.74H246.668C247.188 240.74 247.448 241 247.448 241.52V319.52C247.448 320.04 247.708 320.3 248.228 320.3H282.288C282.808 320.3 283.068 320.04 283.068 319.52V241.52C283.068 241 283.328 240.74 283.848 240.74H296.588C297.108 240.74 297.368 241 297.368 241.52V421.96C297.368 422.48 297.108 422.74 296.588 422.74H283.848C283.328 422.74 283.068 422.48 283.068 421.96V344.74C283.068 344.22 282.808 343.96 282.288 343.96H248.228C247.708 343.96 247.448 344.22 247.448 344.74V421.96ZM306.913 241.78C306.913 241.26 307.173 241 307.693 241H358.653C359.173 241 359.433 241.26 359.433 241.78V264.14C359.433 264.66 359.173 264.92 358.653 264.92H321.993C321.473 264.92 321.213 265.18 321.213 265.7V316.92C321.213 317.44 321.473 317.7 321.993 317.7H356.313C356.833 317.7 357.093 317.96 357.093 318.48V340.58C357.093 341.1 356.833 341.36 356.313 341.36H321.993C321.473 341.36 321.213 341.62 321.213 342.14V398.56C321.213 399.08 321.473 399.34 321.993 399.34H360.213C360.733 399.34 360.993 399.6 360.993 400.12V422.22C360.993 422.74 360.733 423 360.213 423H307.693C307.173 423 306.913 422.74 306.913 422.22V241.78Z" fill="#EEE8DA"/>
<path d="M410.732 434.96C389.932 434.96 380.052 411.04 380.052 361.38V238.92C380.052 235.54 381.872 233.72 385.252 233.72H399.812C403.192 233.72 405.012 235.54 405.012 238.92V361.38C405.012 391.54 406.832 396.48 410.472 396.48C414.112 396.48 415.932 391.54 415.932 361.38V238.92C415.932 235.54 417.752 233.72 421.132 233.72H435.692C439.072 233.72 440.892 235.54 440.892 238.92V361.38C440.892 410.78 431.272 434.96 410.732 434.96ZM430.234 238.92C430.234 235.54 432.054 233.72 435.434 233.72H452.594C455.714 233.72 457.534 235.28 458.314 238.14L469.234 284.94C469.234 285.46 470.014 285.2 470.014 284.94V238.92C470.014 235.54 471.834 233.72 475.214 233.72H489.774C493.154 233.72 494.974 235.54 494.974 238.92V425.08C494.974 428.46 493.154 430.28 489.774 430.28H474.174C471.054 430.28 468.974 429.5 468.454 425.6L455.974 366.32C455.974 365.8 455.194 366.06 455.194 366.32V425.08C455.194 428.46 453.374 430.28 449.994 430.28H435.434C432.054 430.28 430.234 428.46 430.234 425.08V238.92ZM544.998 348.64C548.378 348.64 550.198 350.46 550.198 354.1C549.418 400.9 540.578 432.88 517.698 432.88C495.598 432.88 483.638 395.44 483.638 332C483.638 270.9 496.118 231.38 517.958 231.38C540.058 231.38 549.418 266.74 550.198 312.5C550.198 316.14 548.378 317.96 544.998 317.96H530.438C527.058 317.96 525.238 316.14 525.238 312.5C524.978 287.02 523.418 269.86 517.698 269.86C511.718 269.86 509.118 292.22 509.118 332C509.118 372.04 511.718 394.4 517.698 394.4C523.158 394.4 524.978 380.1 525.238 354.1C525.238 350.46 527.058 348.64 530.438 348.64H544.998ZM569.881 432.88C545.181 432.88 535.821 394.4 535.821 332.26C535.821 273.24 544.921 231.38 569.881 231.38C594.841 231.38 604.201 274.02 604.201 332.26C604.201 394.14 594.581 432.88 569.881 432.88ZM569.881 394.4C576.381 394.4 578.721 374.12 578.721 332.26C578.721 292.22 576.381 269.86 569.881 269.86C563.381 269.86 561.301 291.7 561.301 332.26C561.301 373.6 563.381 394.4 569.881 394.4ZM592.877 238.92C592.877 235.54 594.697 233.72 598.077 233.72H615.237C618.357 233.72 620.177 235.28 620.957 238.14L631.877 284.94C631.877 285.46 632.657 285.2 632.657 284.94V238.92C632.657 235.54 634.477 233.72 637.857 233.72H652.417C655.797 233.72 657.617 235.54 657.617 238.92V425.08C657.617 428.46 655.797 430.28 652.417 430.28H636.817C633.697 430.28 631.617 429.5 631.097 425.6L618.617 366.32C618.617 365.8 617.837 366.06 617.837 366.32V425.08C617.837 428.46 616.017 430.28 612.637 430.28H598.077C594.697 430.28 592.877 428.46 592.877 425.08V238.92ZM671.5 432.88C650.96 432.88 639.78 407.14 639 359.56C639 356.18 640.82 354.1 644.2 354.1H660.06C663.44 354.1 665.26 355.92 665.26 359.3C665.52 386.34 668.12 394.66 670.98 394.66C674.1 394.66 675.92 387.64 675.92 374.9C675.92 335.38 637.96 327.58 637.96 286.5C637.96 242.04 654.34 231.12 670.72 231.12C690.22 231.12 699.84 257.64 700.62 299.76C700.62 303.14 698.8 304.96 695.42 304.96H679.56C676.18 304.96 674.36 303.14 674.36 299.76C674.36 280.78 673.32 269.6 668.64 269.6C665.78 269.6 664.22 272.72 664.22 282.86C664.22 312.5 701.92 315.88 701.92 378.54C701.92 415.46 689.44 432.88 671.5 432.88ZM742.557 348.64C745.937 348.64 747.757 350.46 747.757 354.1C746.977 400.9 738.137 432.88 715.257 432.88C693.157 432.88 681.197 395.44 681.197 332C681.197 270.9 693.677 231.38 715.517 231.38C737.617 231.38 746.977 266.74 747.757 312.5C747.757 316.14 745.937 317.96 742.557 317.96H727.997C724.617 317.96 722.797 316.14 722.797 312.5C722.537 287.02 720.977 269.86 715.257 269.86C709.277 269.86 706.677 292.22 706.677 332C706.677 372.04 709.277 394.4 715.257 394.4C720.717 394.4 722.537 380.1 722.797 354.1C722.797 350.46 724.617 348.64 727.997 348.64H742.557ZM735.46 238.92C735.46 235.54 737.28 233.72 740.66 233.72H755.22C758.6 233.72 760.42 235.54 760.42 238.92V425.08C760.42 428.46 758.6 430.28 755.22 430.28H740.66C737.28 430.28 735.46 428.46 735.46 425.08V238.92ZM783.061 432.88C758.361 432.88 749.001 394.4 749.001 332.26C749.001 273.24 758.101 231.38 783.061 231.38C808.021 231.38 817.381 274.02 817.381 332.26C817.381 394.14 807.761 432.88 783.061 432.88ZM783.061 394.4C789.561 394.4 791.901 374.12 791.901 332.26C791.901 292.22 789.561 269.86 783.061 269.86C776.561 269.86 774.481 291.7 774.481 332.26C774.481 373.6 776.561 394.4 783.061 394.4ZM835.436 434.96C814.636 434.96 804.756 411.04 804.756 361.38V238.92C804.756 235.54 806.576 233.72 809.956 233.72H824.516C827.896 233.72 829.716 235.54 829.716 238.92V361.38C829.716 391.54 831.536 396.48 835.176 396.48C838.816 396.48 840.636 391.54 840.636 361.38V238.92C840.636 235.54 842.456 233.72 845.836 233.72H860.396C863.776 233.72 865.596 235.54 865.596 238.92V361.38C865.596 410.78 855.976 434.96 835.436 434.96ZM878.078 432.88C857.538 432.88 846.358 407.14 845.578 359.56C845.578 356.18 847.398 354.1 850.778 354.1H866.638C870.018 354.1 871.838 355.92 871.838 359.3C872.098 386.34 874.698 394.66 877.558 394.66C880.678 394.66 882.498 387.64 882.498 374.9C882.498 335.38 844.538 327.58 844.538 286.5C844.538 242.04 860.918 231.12 877.298 231.12C896.798 231.12 906.418 257.64 907.198 299.76C907.198 303.14 905.378 304.96 901.998 304.96H886.138C882.758 304.96 880.938 303.14 880.938 299.76C880.938 280.78 879.898 269.6 875.218 269.6C872.358 269.6 870.798 272.72 870.798 282.86C870.798 312.5 908.498 315.88 908.498 378.54C908.498 415.46 896.018 432.88 878.078 432.88Z" fill="#FE3001"/>
<path d="M94.3167 246V253.054H109.061V260.108H116.126V267.163H123.498L123.264 273.769L123.651 274.217H130.562V281.271H137.627V295.379H144.999V373.282H137.627V387.697H130.562V394.444H123.498L123.424 401.357L123.037 401.805H116.126V408.553H109.061V415.454L108.6 415.914H94.3167V422.968H51.3134V415.914H36.5694V408.553H29.5045V401.805H22.5933L22.1325 401.345V394.444H15.0677V387.697H8.00286V373.282H0.630859L0.938026 295.379H8.00286V281.271H15.0677V274.217H22.1325V267.163H29.0438L29.5045 266.702V260.108H36.5694V253.054H51.0062V246H94.3167ZM94.3167 260.108H51.467C50.7697 260.535 51.3134 260.768 51.3134 260.875V266.702L50.8649 267.089L44.3868 266.929L43.9383 267.316V288.325H51.3103V281.271H94.3137V288.325H101.686V267.316L101.225 266.856H94.3137V260.108H94.3167ZM36.5694 274.217H29.5045V281.271H22.4397V288.325H15.0677V302.433H8.00286V316.542H15.0677V309.488H21.6718C21.7639 309.488 21.9083 309.877 22.1325 309.794V302.433H29.5045V295.379H36.5694V274.217ZM116.126 274.217H109.061V295.379H116.126V302.433H123.037C123.476 302.703 123.461 303.044 123.513 303.492C123.716 305.209 123.565 307.822 123.19 309.488H130.102L130.562 309.948V316.542H137.627V302.433H130.716C130.019 302.007 130.562 301.774 130.562 301.667V288.325H123.19V281.271H116.126V274.217ZM94.3167 295.379H51.0062V302.433H36.5694V309.488H29.5045V316.848H22.4397V323.596H15.5285L15.0677 324.056V344.605C15.5561 344.967 16.9445 345.053 17.6663 345.077C19.024 345.12 20.3571 345.114 21.6749 344.749C21.9329 344.715 22.4397 345.065 22.4397 345.218V352.119C24.1076 351.745 26.7247 351.595 28.4448 351.797C28.8933 351.849 29.2342 351.834 29.5045 352.273V359.173H36.5694V366.228H50.8526L51.3134 366.688V373.282H94.3167V366.688L94.7775 366.228H109.061V359.173H116.126V351.813L123.19 352.119V345.218C125.322 344.074 128.21 345.163 130.562 345.065V323.596H123.19V316.848H116.126V309.488H109.061V302.433H94.3167V295.379ZM15.0677 352.426H8.77078C8.69399 352.426 8.58955 352.178 8.46361 352.187L8.00286 352.579V366.228H14.9141C15.6114 366.654 15.0677 366.887 15.0677 366.994V380.336H22.4397V387.39H29.5045V394.444H36.5694V373.282H29.5045V366.228H22.1325V359.173H15.0677V352.426ZM137.627 352.426H130.562V359.173H123.19C123.077 359.505 123.498 359.845 123.498 359.94V366.228H116.126V373.282H109.214C108.517 373.708 109.061 373.941 109.061 374.049V394.444H116.126V387.083C116.35 387.001 116.494 387.39 116.586 387.39H123.19V380.336H130.562V366.994C130.562 366.918 130.314 366.813 130.323 366.688L130.716 366.228H137.627V352.426ZM51.3134 380.336H44.4021L43.9414 380.796V401.345L44.4021 401.805H51.3134V408.553H94.3167V401.805H101.382V380.336H94.3167V387.697H51.3134V380.336Z" fill="#EEE8DA"/>
<path d="M80.0128 309.879V324.159H87.3785V331.147H94.4374V338.439C94.2133 338.521 94.0691 338.135 93.977 338.135H87.3785V344.668L86.9182 345.123H80.0128V359.1H65.8951V345.123H58.8362V338.591L58.3759 338.135H51.9308C51.8357 338.135 51.7406 338.424 51.6239 338.433L51.314 338.135C50.9702 337.926 51.4705 337.789 51.4705 337.68V331.147H58.3759L58.8362 330.692V324.159H66.202V309.879C66.426 309.797 66.5703 310.183 66.6623 310.183H79.5524C79.6445 310.183 79.7887 309.797 80.0128 309.879Z" fill="#EEE8DA"/>
</svg>
